# xmcd
# 
# Track frame offsets:
#     150
#     17106
#     39111
#     60030
#     76311
#     92831
#     112931
#     128935
#     146818
#     165061
#     183810
#     200035
#     213535
#     228453
# 
# Disc length: 3290
# 
# Revision: 0
# Processed by: cddbd v1.5.2PL0 Copyright (c) Steve Scherf et al.
# Submitted via: BonkEnc v1.0.8
# 
DISCID=ad0cd80e
DTITLE=Steph Carse - Reach Out
DYEAR=0
DGENRE=Country
TTITLE0=That's Life
TTITLE1=Reach Out
TTITLE2=Let Go
TTITLE3=Nessun Dorma
TTITLE4=Somewhere
TTITLE5=You'll Never Walk Alone
TTITLE6=Solo Por Tu Amor
TTITLE7=No More Boleros
TTITLE8=Jeter Les Masques
TTITLE9=Climb Every Mountain
TTITLE10=I Found My Way To You
TTITLE11=Journey
TTITLE12=When You Wish Upon A Star
TTITLE13=Je Chante Avec Toi Liberté
EXTD=
EXTT0=
EXTT1=
EXTT2=
EXTT3=
EXTT4=
EXTT5=
EXTT6=
EXTT7=
EXTT8=
EXTT9=
EXTT10=
EXTT11=
EXTT12=
EXTT13=
PLAYORDER=
